<svg width="124" height="52" viewBox="0 0 124 52" fill="none" xmlns="http://www.w3.org/2000/svg">
<path d="M0.437692 40.2827L9.51979 17.7142H13.4317L4.34956 40.2827H0.437692Z" fill="#FD6F8E"/>
<path d="M30.5115 37.3283C29.0525 37.3283 27.7029 37.0638 26.4628 36.535C25.2409 36.0061 24.1649 35.2675 23.2348 34.3191C22.323 33.3708 21.6117 32.2583 21.1011 30.9817C20.5905 29.7051 20.3351 28.31 20.3351 26.7963C20.3351 25.2826 20.5813 23.8875 21.0737 22.6109C21.5844 21.3161 22.2956 20.2036 23.2075 19.2735C24.1376 18.3252 25.2227 17.5957 26.4628 17.085C27.7029 16.5562 29.0525 16.2917 30.5115 16.2917C31.9704 16.2917 33.2744 16.5379 34.4233 17.0303C35.5905 17.5227 36.5753 18.1793 37.3777 18.9999C38.1802 19.8024 38.7546 20.6869 39.1012 21.6534L35.7638 23.2127C35.3808 22.1914 34.7334 21.3525 33.8215 20.696C32.9096 20.0212 31.8063 19.6838 30.5115 19.6838C29.2349 19.6838 28.1042 19.9847 27.1193 20.5866C26.1528 21.1884 25.3959 22.0182 24.8488 23.0759C24.3199 24.1337 24.0555 25.3738 24.0555 26.7963C24.0555 28.2188 24.3199 29.4681 24.8488 30.544C25.3959 31.6018 26.1528 32.4316 27.1193 33.0334C28.1042 33.6352 29.2349 33.9362 30.5115 33.9362C31.8063 33.9362 32.9096 33.6079 33.8215 32.9514C34.7334 32.2766 35.3808 31.4286 35.7638 30.4073L39.1012 31.9665C38.7546 32.9331 38.1802 33.8267 37.3777 34.6474C36.5753 35.4498 35.5905 36.0973 34.4233 36.5897C33.2744 37.0821 31.9704 37.3283 30.5115 37.3283ZM55.1019 37.3283C53.5335 37.3283 52.1384 37 50.9165 36.3435C49.7128 35.6869 48.7645 34.7842 48.0715 33.6352C47.3785 32.4863 47.032 31.1824 47.032 29.7234V16.62H50.7523V29.5319C50.7523 30.3708 50.9347 31.1276 51.2995 31.8024C51.6824 32.4772 52.2022 33.0061 52.8587 33.389C53.5153 33.7538 54.263 33.9362 55.1019 33.9362C55.959 33.9362 56.7068 33.7538 57.3451 33.389C58.0016 33.0061 58.5122 32.4772 58.877 31.8024C59.26 31.1276 59.4515 30.3708 59.4515 29.5319V16.62H63.1718V29.7234C63.1718 31.1824 62.8253 32.4863 62.1323 33.6352C61.4393 34.7842 60.4819 35.6869 59.26 36.3435C58.0563 37 56.6703 37.3283 55.1019 37.3283ZM72.0152 37V16.62H79.5927C80.9788 16.62 82.2007 16.8753 83.2584 17.3859C84.3344 17.8784 85.1733 18.6078 85.7751 19.5744C86.377 20.5227 86.6779 21.6808 86.6779 23.0486C86.6779 24.4528 86.3405 25.6474 85.6657 26.6322C85.0092 27.617 84.1156 28.3465 82.9849 28.8206L87.6627 37H83.4499L78.4438 28.0547L80.8511 29.4772H75.7356V37H72.0152ZM75.7356 26.1945H79.6475C80.3222 26.1945 80.9058 26.0668 81.3982 25.8115C81.8906 25.538 82.2736 25.1641 82.5472 24.6899C82.8207 24.2158 82.9575 23.6686 82.9575 23.0486C82.9575 22.4103 82.8207 21.8632 82.5472 21.4072C82.2736 20.9331 81.8906 20.5683 81.3982 20.313C80.9058 20.0395 80.3222 19.9027 79.6475 19.9027H75.7356V26.1945ZM95.2302 37V16.62H98.9505V37H95.2302ZM115.276 37.3283C113.982 37.3283 112.778 37.0912 111.665 36.617C110.571 36.1429 109.623 35.4863 108.82 34.6474C108.036 33.7903 107.462 32.7963 107.097 31.6656L110.188 30.3252C110.681 31.4924 111.392 32.4134 112.322 33.0881C113.252 33.7447 114.301 34.0729 115.468 34.0729C116.124 34.0729 116.69 33.9726 117.164 33.772C117.656 33.5532 118.03 33.2614 118.285 32.8966C118.559 32.5319 118.696 32.0942 118.696 31.5836C118.696 30.9817 118.513 30.4893 118.149 30.1064C117.802 29.7051 117.273 29.3951 116.562 29.1763L112.65 27.9179C111.064 27.4255 109.869 26.6869 109.067 25.7021C108.264 24.7173 107.863 23.5592 107.863 22.2279C107.863 21.0607 108.146 20.0303 108.711 19.1367C109.295 18.2431 110.097 17.5501 111.118 17.0577C112.158 16.547 113.343 16.2917 114.675 16.2917C115.896 16.2917 117.018 16.5106 118.039 16.9483C119.061 17.3677 119.936 17.9604 120.665 18.7264C121.413 19.4741 121.969 20.3586 122.334 21.3799L119.27 22.7477C118.869 21.7264 118.267 20.9422 117.465 20.3951C116.662 19.8297 115.732 19.5471 114.675 19.5471C114.054 19.5471 113.507 19.6565 113.033 19.8753C112.559 20.0759 112.185 20.3677 111.912 20.7507C111.656 21.1154 111.529 21.5531 111.529 22.0638C111.529 22.6291 111.711 23.1306 112.076 23.5683C112.44 23.9878 112.997 24.3161 113.744 24.5531L117.492 25.7294C119.115 26.2583 120.328 26.9878 121.13 27.9179C121.951 28.848 122.361 29.9969 122.361 31.3647C122.361 32.5319 122.061 33.5623 121.459 34.4559C120.857 35.3495 120.027 36.0517 118.969 36.5623C117.912 37.0729 116.681 37.3283 115.276 37.3283Z" fill="white"/>
</svg>
