<svg width="47" height="47" viewBox="0 0 47 47" fill="none" xmlns="http://www.w3.org/2000/svg">
<rect x="0.5" y="0.5" width="46" height="46" rx="23" stroke="#A0A0A0"/>
<path d="M23.52 12C17.1682 12 12 17.1682 12 23.52C12 26.9237 13.4851 29.9866 15.84 32.0971V32.1053L16.007 32.2493C16.0363 32.2747 16.0685 32.2958 16.0982 32.3208C16.3051 32.4955 16.5182 32.663 16.7371 32.8234C16.7962 32.8666 16.8552 32.9083 16.9152 32.9501C17.1475 33.1133 17.3851 33.2688 17.629 33.4147C17.6698 33.4392 17.7115 33.4622 17.7523 33.4858C18.0197 33.6413 18.2928 33.7877 18.5731 33.9216C18.576 33.923 18.5789 33.924 18.5818 33.9254C19.1813 34.211 19.8101 34.4448 20.461 34.6243C20.473 34.6277 20.485 34.6315 20.497 34.6344C20.8046 34.7184 21.1176 34.789 21.4349 34.847C21.4646 34.8523 21.4939 34.8576 21.5237 34.8629C21.8299 34.9166 22.14 34.9594 22.4544 34.9886C22.4904 34.992 22.5264 34.9939 22.5619 34.9968C22.8782 35.0232 23.197 35.04 23.52 35.04C23.843 35.04 24.1618 35.0232 24.4781 34.9968C24.5141 34.9939 24.5501 34.992 24.5856 34.9886C24.9 34.9598 25.2101 34.9166 25.5163 34.8629C25.5461 34.8576 25.5754 34.8523 25.6051 34.847C25.9224 34.789 26.2354 34.7184 26.543 34.6344C26.555 34.631 26.567 34.6277 26.579 34.6243C27.2299 34.4448 27.8587 34.211 28.4582 33.9254C28.4611 33.924 28.464 33.923 28.4669 33.9216C28.7472 33.7877 29.0203 33.6408 29.2877 33.4858C29.329 33.4618 29.3702 33.4392 29.411 33.4147C29.6554 33.2688 29.893 33.1128 30.1248 32.9501C30.1843 32.9083 30.2438 32.8666 30.3029 32.8234C30.5218 32.663 30.7349 32.4955 30.9418 32.3208C30.9715 32.2958 31.0037 32.2747 31.033 32.2493L31.2 32.1053V32.0971C33.5549 29.9861 35.04 26.9237 35.04 23.52C35.04 17.1682 29.8718 12 23.52 12ZM23.52 23.52C21.4027 23.52 19.68 21.7973 19.68 19.68C19.68 17.5627 21.4027 15.84 23.52 15.84C25.6373 15.84 27.36 17.5627 27.36 19.68C27.36 21.7973 25.6373 23.52 23.52 23.52ZM24.96 24.48C27.8712 24.48 30.24 26.8488 30.24 29.76V31.6598C30.2198 31.6766 30.1987 31.692 30.1786 31.7088C29.989 31.8629 29.7946 32.0093 29.5958 32.1494C29.5517 32.1806 29.5085 32.2128 29.4643 32.243C29.2498 32.3894 29.0294 32.5267 28.8053 32.6568C28.7645 32.6808 28.7232 32.7043 28.6819 32.7278C28.4467 32.8598 28.2072 32.9837 27.9629 33.097C27.9374 33.109 27.9115 33.1205 27.8856 33.132C27.0883 33.4944 26.2483 33.757 25.3838 33.9125C25.3565 33.9173 25.3291 33.9226 25.3018 33.9274C25.0296 33.9739 24.755 34.0099 24.4786 34.0354C24.4406 34.0387 24.4022 34.0411 24.3638 34.044C24.084 34.0656 23.8027 34.08 23.52 34.08C23.2373 34.08 22.956 34.0656 22.6762 34.043C22.6382 34.0402 22.5998 34.0378 22.5614 34.0344C22.285 34.009 22.0104 33.9734 21.7382 33.9264C21.7109 33.9216 21.6835 33.9168 21.6562 33.9115C20.7917 33.756 19.9517 33.4934 19.1544 33.131C19.1285 33.119 19.1026 33.108 19.0771 33.096C18.8328 32.9827 18.5933 32.8589 18.3581 32.7269C18.3168 32.7034 18.276 32.6798 18.2347 32.6558C18.0106 32.5262 17.7902 32.3885 17.5757 32.2421C17.531 32.2118 17.4878 32.1797 17.4442 32.1485C17.2454 32.0083 17.051 31.8624 16.8614 31.7078C16.8413 31.6915 16.8202 31.6757 16.8 31.6589V29.76C16.8 26.8488 19.1688 24.48 22.08 24.48H24.96ZM31.2 30.7565V29.76C31.2 26.7499 29.0573 24.2309 26.2176 23.6472C27.4853 22.7827 28.32 21.3269 28.32 19.68C28.32 17.0333 26.1667 14.88 23.52 14.88C20.8733 14.88 18.72 17.0333 18.72 19.68C18.72 21.3269 19.5547 22.7827 20.8224 23.6472C17.9827 24.2309 15.84 26.7499 15.84 29.76V30.7565C14.0563 28.8648 12.96 26.3189 12.96 23.52C12.96 17.6971 17.6971 12.96 23.52 12.96C29.3429 12.96 34.08 17.6971 34.08 23.52C34.08 26.3189 32.9837 28.8648 31.2 30.7565Z" fill="#3D009E"/>
</svg>
