<svg width="565" height="111" viewBox="0 0 565 111" fill="none" xmlns="http://www.w3.org/2000/svg">
<path d="M0 111L42.0205 6.58153H60.1197L18.0992 111H0Z" fill="#F43F5E"/>
<path d="M139.144 97.3307C132.393 97.3307 126.149 96.1072 120.412 93.6602C114.758 91.2132 109.78 87.7959 105.476 83.4082C101.258 79.0205 97.9668 73.8734 95.6042 67.9669C93.2416 62.0604 92.0603 55.6055 92.0603 48.6021C92.0603 41.5986 93.1994 35.1437 95.4776 29.2372C97.8402 23.2463 101.131 18.0992 105.35 13.7959C109.653 9.40821 114.674 6.03306 120.412 3.67047C126.149 1.22349 132.393 0 139.144 0C145.894 0 151.927 1.13911 157.243 3.41733C162.643 5.69555 167.199 8.73318 170.912 12.5302C174.625 16.2429 177.283 20.3352 178.886 24.8073L163.445 32.0217C161.673 27.2965 158.677 23.4151 154.458 20.3774C150.239 17.2554 145.134 15.6944 139.144 15.6944C133.237 15.6944 128.006 17.0867 123.449 19.8712C118.977 22.6556 115.475 26.4949 112.944 31.3888C110.497 36.2828 109.274 42.0205 109.274 48.6021C109.274 55.1836 110.497 60.9635 112.944 65.9418C115.475 70.8358 118.977 74.675 123.449 77.4595C128.006 80.244 133.237 81.6363 139.144 81.6363C145.134 81.6363 150.239 80.1174 154.458 77.0798C158.677 73.9578 161.673 70.0342 163.445 65.309L178.886 72.5234C177.283 76.9954 174.625 81.13 170.912 84.927C167.199 88.6397 162.643 91.6351 157.243 93.9133C151.927 96.1916 145.894 97.3307 139.144 97.3307Z" fill="#18181B"/>
<path d="M252.917 97.3307C245.661 97.3307 239.206 95.8119 233.552 92.7742C227.983 89.7366 223.596 85.5599 220.389 80.244C217.183 74.9282 215.58 68.8951 215.58 62.1448V1.51881H232.793V61.2588C232.793 65.1403 233.637 68.642 235.324 71.764C237.096 74.886 239.501 77.333 242.539 79.1049C245.576 80.7925 249.036 81.6363 252.917 81.6363C256.883 81.6363 260.342 80.7925 263.296 79.1049C266.333 77.333 268.696 74.886 270.384 71.764C272.155 68.642 273.041 65.1403 273.041 61.2588V1.51881H290.255V62.1448C290.255 68.8951 288.651 74.9282 285.445 80.244C282.239 85.5599 277.809 89.7366 272.155 92.7742C266.586 95.8119 260.174 97.3307 252.917 97.3307Z" fill="#18181B"/>
<path d="M331.171 95.8119V1.51881H366.23C372.643 1.51881 378.296 2.70011 383.19 5.06272C388.168 7.34093 392.05 10.7161 394.834 15.1881C397.619 19.5758 399.011 24.9339 399.011 31.2623C399.011 37.7594 397.45 43.2862 394.328 47.8426C391.29 52.3991 387.156 55.7742 381.924 57.9681L403.568 95.8119H384.076L360.914 54.4242L372.052 61.0057H348.384V95.8119H331.171ZM348.384 45.8176H366.483C369.605 45.8176 372.305 45.2269 374.583 44.0456C376.862 42.7799 378.634 41.0502 379.899 38.8563C381.165 36.6625 381.798 34.1311 381.798 31.2623C381.798 28.309 381.165 25.7776 379.899 23.6682C378.634 21.4743 376.862 19.7868 374.583 18.6055C372.305 17.3398 369.605 16.707 366.483 16.707H348.384V45.8176Z" fill="#18181B"/>
<path d="M438.58 95.8119V1.51881H455.794V95.8119H438.58Z" fill="#18181B"/>
<path d="M531.329 97.3307C525.338 97.3307 519.769 96.2337 514.622 94.0399C509.559 91.8461 505.171 88.8084 501.459 84.927C497.831 80.9612 495.173 76.3626 493.485 71.1311L507.787 64.9293C510.065 70.3295 513.356 74.5906 517.66 77.7127C521.963 80.7503 526.815 82.2691 532.215 82.2691C535.252 82.2691 537.868 81.805 540.062 80.8768C542.34 79.8643 544.07 78.5142 545.251 76.8267C546.517 75.1391 547.15 73.114 547.15 70.7514C547.15 67.9669 546.306 65.6887 544.618 63.9168C543.015 62.0604 540.568 60.626 537.278 59.6135L519.178 53.7913C511.837 51.5131 506.311 48.0958 502.598 43.5393C498.885 38.9829 497.029 33.6249 497.029 27.4652C497.029 22.065 498.337 17.2976 500.953 13.1631C503.653 9.02851 507.365 5.82212 512.091 3.5439C516.9 1.1813 522.385 0 528.544 0C534.198 0 539.387 1.01254 544.112 3.03763C548.837 4.97833 552.888 7.72064 556.263 11.2645C559.722 14.7241 562.296 18.8164 563.983 23.5416L549.808 29.87C547.951 25.1448 545.167 21.5165 541.454 18.9852C537.742 16.3694 533.438 15.0616 528.544 15.0616C525.675 15.0616 523.144 15.5678 520.95 16.5804C518.756 17.5086 517.027 18.8586 515.761 20.6306C514.58 22.3181 513.989 24.3432 513.989 26.7058C513.989 29.3216 514.833 31.642 516.52 33.667C518.208 35.6078 520.781 37.1266 524.241 38.2235L541.581 43.6659C549.091 46.1129 554.702 49.488 558.414 53.7913C562.211 58.0946 564.11 63.4105 564.11 69.7389C564.11 75.1391 562.718 79.9065 559.933 84.0411C557.149 88.1756 553.31 91.4242 548.416 93.7868C543.522 96.1494 537.826 97.3307 531.329 97.3307Z" fill="#18181B"/>
</svg>
